<svg width="41" height="32" viewBox="0 0 41 32" fill="none" xmlns="http://www.w3.org/2000/svg">
<path d="M11.88 17.072H7.03998V31.812H2.41998C1.42264 31.812 0.762643 31.6507 0.439977 31.328C0.146643 31.0053 -2.33352e-05 30.3307 -2.33352e-05 29.304V9.53674e-06H5.45598C5.92531 9.53674e-06 6.30664 0.161343 6.59998 0.484011C6.89331 0.806677 7.03998 1.23201 7.03998 1.76001V12.892H11.88V17.072ZM13.64 9.53674e-06H18.26C19.2573 9.53674e-06 19.9026 0.161343 20.196 0.484011C20.5186 0.806677 20.68 1.48134 20.68 2.50801V31.812H15.224C14.7546 31.812 14.3733 31.6507 14.08 31.328C13.7866 31.0053 13.64 30.58 13.64 30.052V9.53674e-06ZM30.3884 8.67601V17.796C30.3884 18.1373 30.4417 18.3827 30.5484 18.532C30.655 18.66 30.9004 18.724 31.2844 18.724H32.4364V21.764H27.4444C26.6337 21.764 26.0684 21.5827 25.7484 21.22C25.4284 20.836 25.2684 20.2493 25.2684 19.46V10.18C25.2684 9.17734 25.855 8.67601 27.0284 8.67601H30.3884ZM35.6044 31.812H31.6044C30.879 31.812 30.399 31.6947 30.1644 31.46C29.951 31.2253 29.8444 30.7347 29.8444 29.988V24.868C29.8444 24.1213 29.951 23.6307 30.1644 23.396C30.399 23.1613 30.879 23.044 31.6044 23.044H35.6044V31.812ZM35.3484 8.67601H38.7084C39.3484 8.67601 39.7964 8.80401 40.0524 9.06001C40.3297 9.31601 40.4684 9.79601 40.4684 10.5V19.524C40.4684 21.0173 39.8497 21.764 38.6124 21.764H33.7164V18.724H34.4844C34.8684 18.724 35.103 18.6493 35.1884 18.5C35.295 18.3507 35.3484 18.116 35.3484 17.796V8.67601Z" fill="#622291"/>
</svg>
